<?xml version="1.0" standalone="no"?>
<!DOCTYPE svg PUBLIC "-//W3C//DTD SVG 20010904//EN"
 "http://www.w3.org/TR/2001/REC-SVG-20010904/DTD/svg10.dtd">
<svg version="1.0" xmlns="http://www.w3.org/2000/svg"
 width="1200.000000pt" height="960.000000pt" viewBox="0 0 1200.000000 960.000000"
 preserveAspectRatio="xMidYMid meet">
<metadata>
Created by potrace 1.16, written by Peter Selinger 2001-2019
</metadata>
<g transform="translate(0.000000,960.000000) scale(0.100000,-0.100000)"
fill="#000000" stroke="none">
<path d="M10902 9085 c-151 -84 -275 -155 -278 -157 -2 -2 7 -89 21 -194 85
-671 98 -1329 40 -1934 -113 -1156 -501 -2212 -1169 -3180 -102 -148 -120
-172 -113 -145 15 53 81 376 116 571 69 379 121 785 153 1194 20 253 17 1034
-5 1275 -28 304 -84 697 -120 842 l-12 47 -220 99 c-333 149 -610 267 -925
392 -315 125 -760 289 -766 282 -3 -3 14 -51 37 -108 419 -1052 492 -2354 204
-3661 -77 -349 -154 -627 -266 -968 -97 -294 -277 -775 -279 -744 0 6 9 126
20 265 36 471 44 690 44 1209 0 616 -17 956 -75 1510 -90 873 -274 1745 -535
2543 -42 128 -79 236 -84 240 -24 26 -1063 286 -1505 377 -302 61 -822 146
-833 135 -2 -2 48 -62 111 -134 673 -763 1200 -1638 1602 -2656 355 -898 591
-1847 715 -2875 49 -403 62 -622 67 -1092 l5 -457 257 130 c178 91 266 142
288 166 31 34 87 151 209 435 443 1034 694 2052 754 3053 23 391 3 1026 -45
1385 -11 85 158 -320 261 -623 328 -972 427 -1957 338 -3357 l-7 -105 -141
-139 c-637 -628 -1356 -1119 -2106 -1439 -915 -389 -1929 -560 -3015 -507
-823 40 -1409 172 -2222 502 -95 38 -177 68 -182 66 -19 -7 -441 -413 -438
-422 4 -12 110 -53 342 -130 1688 -568 3391 -547 5060 62 443 161 958 398
1335 612 352 200 981 711 1435 1165 785 785 1360 1645 1738 2601 447 1127 615
2390 502 3759 -18 208 -25 265 -34 264 -3 0 -129 -70 -279 -154z"/>
<path d="M751 9203 c0 -5 73 -55 162 -113 189 -122 403 -280 514 -378 l78 -69
495 -6 c625 -8 1077 -30 1713 -83 170 -14 311 -23 314 -20 3 3 -64 128 -148
278 l-154 273 -95 12 c-303 38 -1014 85 -1545 103 -350 12 -1335 13 -1334 3z"/>
<path d="M1870 8343 c448 -409 765 -758 1114 -1226 1068 -1432 1744 -3327
2041 -5717 15 -118 28 -216 29 -217 1 -1 119 23 263 54 l260 57 7 315 c10 453
-9 1086 -50 1606 -139 1813 -594 3515 -1330 4987 -49 99 -56 107 -86 112 -69
11 -676 52 -1128 76 -107 6 -420 13 -695 16 l-500 6 75 -69z"/>
</g>
</svg>
